<svg xmlns="http://www.w3.org/2000/svg" viewBox="0 0 500 500"><g id="freepik--background-complete--inject-111"><rect y="382.4" width="500" height="0.25" style="fill:#ebebeb"></rect><rect x="416.78" y="398.49" width="33.12" height="0.25" style="fill:#ebebeb"></rect><rect x="322.53" y="401.21" width="8.69" height="0.25" style="fill:#ebebeb"></rect><rect x="396.59" y="389.21" width="19.19" height="0.25" style="fill:#ebebeb"></rect><rect x="52.46" y="390.89" width="43.19" height="0.25" style="fill:#ebebeb"></rect><rect x="104.56" y="390.89" width="6.33" height="0.25" style="fill:#ebebeb"></rect><rect x="131.47" y="395.11" width="93.68" height="0.25" style="fill:#ebebeb"></rect><path d="M237,337.8H43.91a5.71,5.71,0,0,1-5.7-5.71V60.66A5.71,5.71,0,0,1,43.91,55H237a5.71,5.71,0,0,1,5.71,5.71V332.09A5.71,5.71,0,0,1,237,337.8ZM43.91,55.2a5.46,5.46,0,0,0-5.45,5.46V332.09a5.46,5.46,0,0,0,5.45,5.46H237a5.47,5.47,0,0,0,5.46-5.46V60.66A5.47,5.47,0,0,0,237,55.2Z" style="fill:#ebebeb"></path><path d="M453.31,337.8H260.21a5.72,5.72,0,0,1-5.71-5.71V60.66A5.72,5.72,0,0,1,260.21,55h193.1A5.71,5.71,0,0,1,459,60.66V332.09A5.71,5.71,0,0,1,453.31,337.8ZM260.21,55.2a5.47,5.47,0,0,0-5.46,5.46V332.09a5.47,5.47,0,0,0,5.46,5.46h193.1a5.47,5.47,0,0,0,5.46-5.46V60.66a5.47,5.47,0,0,0-5.46-5.46Z" style="fill:#ebebeb"></path><path d="M192.52,94a4.83,4.83,0,0,1,4.83-4.83,4.52,4.52,0,0,1,1.38.21,10.45,10.45,0,0,1-.11-1.49,10.23,10.23,0,0,1,10.23-10.23,10.62,10.62,0,0,1,1.89.18,8.94,8.94,0,0,1,16.58,4.52h.14a8.24,8.24,0,0,1,0,16.48H197.21A4.84,4.84,0,0,1,192.52,94Z" style="fill:#f5f5f5"></path><path d="M263.51,130.71a2.41,2.41,0,0,1,2.42-2.41,2.61,2.61,0,0,1,.69.1,6,6,0,0,1-.05-.74,5.11,5.11,0,0,1,5.11-5.11,5.77,5.77,0,0,1,.94.08,4.47,4.47,0,0,1,8.29,2.26H281a4.12,4.12,0,1,1,0,8.24H265.86A2.42,2.42,0,0,1,263.51,130.71Z" style="fill:#f5f5f5"></path><path d="M397,200.1a2.42,2.42,0,0,1,2.42-2.42,2.61,2.61,0,0,1,.69.1,6,6,0,0,1,0-.74,5.11,5.11,0,0,1,5.11-5.11,4.83,4.83,0,0,1,.94.09,4.47,4.47,0,0,1,8.29,2.26h.08a4.12,4.12,0,1,1,0,8.24H399.33A2.42,2.42,0,0,1,397,200.1Z" style="fill:#f5f5f5"></path><path d="M70.79,201.07a2.41,2.41,0,0,1,2.42-2.41,2.61,2.61,0,0,1,.69.1,4.53,4.53,0,0,1-.05-.74A5.11,5.11,0,0,1,79,192.91a5.77,5.77,0,0,1,.94.08,4.47,4.47,0,0,1,8.29,2.26h.08a4.12,4.12,0,0,1,0,8.24H73.14A2.43,2.43,0,0,1,70.79,201.07Z" style="fill:#f5f5f5"></path><path d="M325.07,94.25a3.17,3.17,0,0,1,3.17-3.17,3.09,3.09,0,0,1,.91.14,6.37,6.37,0,0,1-.07-1,6.7,6.7,0,0,1,6.7-6.7,7.24,7.24,0,0,1,1.24.11,5.86,5.86,0,0,1,10.87,3H348a5.41,5.41,0,1,1,0,10.81H328.15A3.16,3.16,0,0,1,325.07,94.25Z" style="fill:#f5f5f5"></path><path d="M88.38,170.22a9.2,9.2,0,0,1-.28-1.88c-.23-3.89-3.95-3.27-7.11-3.8-2.47-.42,4.07-6.66-.91-8.67a4.43,4.43,0,0,1-2.41-1.68,2.83,2.83,0,0,1,1.09-3.45,6.65,6.65,0,0,1,3.78-1c.81-1,.15-2.47-.64-3.48s-1.74-2.16-1.45-3.4c.45-1.88,3.08-1.95,5-1.59.7-1.13.68-2.55,1-3.84s1.37-2.64,2.69-2.48,2,1.56,3.24,1.85c1.42.33,2.65-.92,3.76-1.87s3.06-1.53,3.83-.29c.46.75.19,1.78.66,2.51.83,1.27,2.79.49,4-.41s3.16-1.72,4-.47a5.17,5.17,0,0,1,.47,1.3c.58,1.67,2.38,2.5,3.78,3.56s2.51,3.19,1.32,4.49c-.58.65-1.61.91-1.9,1.72-.36,1,.68,1.94,1.51,2.65,1.38,1.17,1.62,4.67-.2,5.63-.76.4-1.88.53-2.07,1.37s.6,1.34,1.11,1.92a3.63,3.63,0,0,1-1.11,5.39c-.44.21-1,.38-1.14.83a1.8,1.8,0,0,0,.11,1,5.14,5.14,0,0,1,.17,2,.87.87,0,0,1-.23.61.92.92,0,0,1-.58.17c-2.63.11-3.9-.82-5.5,1.47a1.91,1.91,0,0,1-.55.58,1.63,1.63,0,0,1-.72.18c-1.81.15-3-1-4.64-1.19-2.29-.29-2.78.89-4.8,1.84C90.52,173.3,89,172.38,88.38,170.22Z" style="fill:#f5f5f5"></path><path d="M118.65,167a9.2,9.2,0,0,1-.28-1.88c-.23-3.89-4-3.27-7.11-3.8-2.47-.42,4.07-6.66-.91-8.67a4.43,4.43,0,0,1-2.41-1.68,2.83,2.83,0,0,1,1.09-3.45,6.67,6.67,0,0,1,3.78-.95c.81-1,.15-2.48-.63-3.48s-1.75-2.16-1.46-3.41c.45-1.87,3.08-1.94,5-1.58.7-1.13.68-2.55,1-3.84s1.37-2.64,2.69-2.48,2,1.56,3.24,1.85c1.42.33,2.65-.93,3.76-1.87s3.07-1.53,3.83-.29c.46.75.19,1.78.66,2.51.83,1.27,2.8.48,4-.41s3.16-1.72,4-.47a5.17,5.17,0,0,1,.47,1.3c.58,1.67,2.38,2.49,3.78,3.56s2.51,3.19,1.32,4.49c-.58.64-1.61.91-1.9,1.72-.36,1,.68,1.94,1.51,2.65,1.38,1.17,1.63,4.67-.19,5.63-.77.4-1.89.53-2.08,1.37s.6,1.34,1.11,1.92a3.62,3.62,0,0,1-1.11,5.38c-.44.21-1,.39-1.13.84a1.71,1.71,0,0,0,.1,1,5.35,5.35,0,0,1,.18,1.95.93.93,0,0,1-.24.61.86.86,0,0,1-.58.16c-2.63.12-3.9-.81-5.5,1.48a1.8,1.8,0,0,1-.55.58,1.6,1.6,0,0,1-.72.18c-1.81.15-3-1-4.64-1.19-2.29-.29-2.78.89-4.8,1.84C120.79,170,119.25,169.11,118.65,167Z" style="fill:#f5f5f5"></path><path d="M121.57,147.67a9.2,9.2,0,0,1-.28-1.88c-.23-3.89-4-3.27-7.12-3.8-2.47-.41,4.08-6.66-.91-8.67a4.36,4.36,0,0,1-2.4-1.68,2.82,2.82,0,0,1,1.09-3.45,6.73,6.73,0,0,1,3.78-1c.81-1,.15-2.47-.64-3.48s-1.75-2.16-1.45-3.4c.45-1.88,3.08-2,5-1.58.7-1.14.69-2.56,1-3.85s1.37-2.64,2.69-2.48,2,1.56,3.23,1.85c1.42.33,2.65-.92,3.77-1.87s3.06-1.53,3.83-.29c.46.75.18,1.78.66,2.52.83,1.26,2.79.48,4-.42s3.16-1.72,4-.47a5.31,5.31,0,0,1,.47,1.3c.58,1.67,2.38,2.5,3.78,3.56s2.51,3.19,1.32,4.49c-.58.65-1.61.91-1.9,1.73-.37,1,.68,1.94,1.51,2.64,1.37,1.17,1.62,4.67-.2,5.63-.76.4-1.88.53-2.07,1.37s.6,1.34,1.11,1.92a3.63,3.63,0,0,1-1.11,5.39c-.44.21-1,.38-1.14.84a1.69,1.69,0,0,0,.11,1,5.58,5.58,0,0,1,.17,1.95.82.82,0,0,1-.24.61.88.88,0,0,1-.57.17c-2.63.11-3.9-.82-5.5,1.47a1.91,1.91,0,0,1-.55.58,1.64,1.64,0,0,1-.73.18c-1.8.15-3-1-4.63-1.19-2.3-.29-2.78.89-4.8,1.84C123.71,150.75,122.17,149.84,121.57,147.67Z" style="fill:#f5f5f5"></path><path d="M141.51,157.27a9.2,9.2,0,0,1-.28-1.87c-.23-3.9-3.95-3.28-7.11-3.81-2.48-.41,4.07-6.65-.92-8.67a4.34,4.34,0,0,1-2.4-1.67,2.83,2.83,0,0,1,1.09-3.46,6.73,6.73,0,0,1,3.78-.95c.81-1,.15-2.47-.64-3.48s-1.75-2.16-1.45-3.4c.45-1.88,3.08-2,5-1.58.71-1.14.69-2.56,1-3.85s1.37-2.64,2.69-2.48,2,1.56,3.23,1.85c1.43.33,2.66-.92,3.77-1.86s3.06-1.53,3.83-.29c.46.74.18,1.78.66,2.51.83,1.27,2.79.48,4-.42s3.16-1.71,4-.47a5.38,5.38,0,0,1,.47,1.31c.58,1.66,2.38,2.49,3.78,3.56s2.51,3.18,1.32,4.49c-.58.64-1.61.9-1.9,1.72-.37,1,.68,1.94,1.51,2.64,1.37,1.17,1.62,4.68-.2,5.63-.76.41-1.88.53-2.07,1.37s.6,1.34,1.11,1.92a3.63,3.63,0,0,1-1.11,5.39c-.44.21-1,.38-1.14.84a1.69,1.69,0,0,0,.11,1,5.6,5.6,0,0,1,.17,1.95.9.9,0,0,1-.23.62,1,1,0,0,1-.58.16c-2.63.12-3.9-.81-5.5,1.47a1.91,1.91,0,0,1-.55.58,1.79,1.79,0,0,1-.72.19c-1.81.14-3-1-4.64-1.19-2.29-.3-2.78.89-4.8,1.83C143.65,160.36,142.11,159.44,141.51,157.27Z" style="fill:#f5f5f5"></path><path d="M161.66,152.84a9.2,9.2,0,0,1-.28-1.88c-.23-3.89-3.95-3.28-7.11-3.8-2.47-.42,4.07-6.66-.91-8.67a4.43,4.43,0,0,1-2.41-1.68,2.83,2.83,0,0,1,1.09-3.45,6.59,6.59,0,0,1,3.78-1c.81-1,.15-2.48-.63-3.49s-1.75-2.15-1.45-3.4c.45-1.87,3.07-1.94,5-1.58.7-1.13.68-2.55,1-3.84s1.37-2.65,2.69-2.48,2,1.56,3.24,1.84c1.42.34,2.65-.92,3.76-1.86s3.07-1.53,3.83-.29c.46.74.19,1.78.67,2.51.82,1.27,2.79.48,4-.42s3.16-1.71,4-.46a5.17,5.17,0,0,1,.47,1.3c.58,1.67,2.38,2.49,3.78,3.56s2.51,3.19,1.32,4.49c-.58.64-1.61.9-1.9,1.72-.36,1,.68,1.94,1.51,2.65,1.38,1.17,1.63,4.67-.19,5.63-.77.4-1.89.52-2.08,1.37s.6,1.34,1.11,1.92a3.61,3.61,0,0,1-1.11,5.38c-.43.21-1,.39-1.13.84a1.71,1.71,0,0,0,.1,1,5.35,5.35,0,0,1,.18,2,.93.93,0,0,1-.24.61.9.9,0,0,1-.58.16c-2.63.12-3.89-.81-5.5,1.48a1.79,1.79,0,0,1-.55.58,1.6,1.6,0,0,1-.72.18c-1.81.15-3-1-4.64-1.19-2.29-.29-2.78.89-4.8,1.84C163.8,155.92,162.26,155,161.66,152.84Z" style="fill:#f5f5f5"></path><path d="M161.93,174.4a7.79,7.79,0,0,1-.23-1.48c-.18-3.07-3.11-2.58-5.6-3-1.94-.32,3.21-5.24-.71-6.82a3.53,3.53,0,0,1-1.9-1.32,2.23,2.23,0,0,1,.86-2.72,5.28,5.28,0,0,1,3-.75c.64-.78.12-1.95-.5-2.74s-1.38-1.7-1.15-2.68c.36-1.48,2.43-1.53,3.92-1.25a10.86,10.86,0,0,0,.81-3c.27-1,1.07-2.08,2.12-2s1.58,1.23,2.54,1.46c1.12.26,2.09-.73,3-1.47s2.41-1.2,3-.23c.36.59.15,1.4.52,2,.66,1,2.2.38,3.16-.33s2.49-1.35,3.16-.37a4.11,4.11,0,0,1,.38,1c.45,1.31,1.87,2,3,2.8s2,2.51,1,3.54c-.46.5-1.27.71-1.5,1.35-.28.81.54,1.53,1.19,2.08,1.09.93,1.28,3.69-.15,4.44-.6.32-1.49.41-1.63,1.08s.47,1,.87,1.51a2.85,2.85,0,0,1-.87,4.24c-.35.17-.77.3-.9.66a1.38,1.38,0,0,0,.08.8,4.21,4.21,0,0,1,.14,1.54.71.71,0,0,1-.19.48.77.77,0,0,1-.45.13c-2.07.09-3.07-.64-4.33,1.16a1.57,1.57,0,0,1-.43.46,1.41,1.41,0,0,1-.57.14c-1.43.12-2.36-.77-3.66-.94-1.8-.23-2.18.7-3.77,1.45C163.61,176.82,162.4,176.1,161.93,174.4Z" style="fill:#f5f5f5"></path><path d="M173.22,167a9.2,9.2,0,0,1-.28-1.88c-.24-3.89-3.95-3.27-7.12-3.8-2.47-.42,4.08-6.66-.91-8.67a4.41,4.41,0,0,1-2.4-1.68,2.83,2.83,0,0,1,1.08-3.45,6.7,6.7,0,0,1,3.79-.95c.81-1,.15-2.48-.64-3.48s-1.75-2.16-1.45-3.41c.45-1.87,3.08-1.94,5-1.58.7-1.13.69-2.55,1-3.84s1.37-2.64,2.69-2.48,2,1.56,3.23,1.85c1.42.33,2.65-.93,3.77-1.87s3.06-1.53,3.83-.29c.46.75.18,1.78.66,2.51.83,1.27,2.79.48,4-.41s3.16-1.72,4-.47a5.17,5.17,0,0,1,.47,1.3c.58,1.67,2.37,2.49,3.78,3.56s2.51,3.19,1.32,4.49c-.58.64-1.61.91-1.9,1.72-.37,1,.68,1.94,1.51,2.65,1.37,1.17,1.62,4.67-.2,5.63-.76.4-1.88.53-2.07,1.37s.6,1.34,1.1,1.92a3.61,3.61,0,0,1-1.1,5.38c-.44.21-1,.39-1.14.84a1.72,1.72,0,0,0,.11,1,5.58,5.58,0,0,1,.17,1.95.88.88,0,0,1-.24.61.82.82,0,0,1-.57.16c-2.63.12-3.9-.81-5.5,1.48a1.91,1.91,0,0,1-.55.58,1.67,1.67,0,0,1-.73.18c-1.8.15-3-1-4.64-1.19-2.29-.29-2.77.89-4.79,1.84C175.35,170,173.82,169.11,173.22,167Z" style="fill:#f5f5f5"></path><path d="M141.51,133.56a9.2,9.2,0,0,1-.28-1.88c-.23-3.89-3.95-3.27-7.11-3.8-2.48-.41,4.07-6.66-.92-8.67a4.36,4.36,0,0,1-2.4-1.68,2.82,2.82,0,0,1,1.09-3.45,6.73,6.73,0,0,1,3.78-1c.81-1,.15-2.47-.64-3.48s-1.75-2.16-1.45-3.4c.45-1.88,3.08-2,5-1.59.71-1.13.69-2.55,1-3.84s1.37-2.64,2.69-2.48,2,1.56,3.23,1.85c1.43.33,2.66-.92,3.77-1.87s3.06-1.53,3.83-.29c.46.75.18,1.78.66,2.51.83,1.27,2.79.49,4-.41s3.16-1.72,4-.47a5.31,5.31,0,0,1,.47,1.3c.58,1.67,2.38,2.5,3.78,3.56s2.51,3.19,1.32,4.49c-.58.65-1.61.91-1.9,1.73-.37,1,.68,1.93,1.51,2.64,1.37,1.17,1.62,4.67-.2,5.63-.76.4-1.88.53-2.07,1.37s.6,1.34,1.11,1.92a3.63,3.63,0,0,1-1.11,5.39c-.44.21-1,.38-1.14.83a1.72,1.72,0,0,0,.11,1,5.58,5.58,0,0,1,.17,2,.85.85,0,0,1-.23.61.92.92,0,0,1-.58.17c-2.63.11-3.9-.82-5.5,1.47a1.91,1.91,0,0,1-.55.58,1.63,1.63,0,0,1-.72.18c-1.81.15-3-1-4.64-1.19-2.29-.29-2.78.89-4.8,1.84C143.65,136.64,142.11,135.72,141.51,133.56Z" style="fill:#f5f5f5"></path><path d="M115.62,134.89a9.42,9.42,0,0,1-.28-1.88c-.23-3.9-4-3.28-7.11-3.81-2.48-.41,4.07-6.65-.92-8.67a4.34,4.34,0,0,1-2.4-1.67A2.84,2.84,0,0,1,106,115.4a6.73,6.73,0,0,1,3.78-1c.81-1,.15-2.47-.64-3.48s-1.75-2.16-1.45-3.4c.45-1.88,3.08-1.95,5-1.58.71-1.14.69-2.56,1-3.85s1.37-2.64,2.69-2.48,2,1.56,3.23,1.85c1.43.34,2.66-.92,3.77-1.86s3.06-1.53,3.83-.29c.46.74.18,1.78.66,2.51.83,1.27,2.79.48,4-.42s3.16-1.71,4-.46a5.17,5.17,0,0,1,.47,1.3c.58,1.66,2.38,2.49,3.78,3.56s2.51,3.19,1.32,4.49c-.58.64-1.61.9-1.9,1.72-.37,1,.68,1.94,1.51,2.64,1.37,1.17,1.62,4.68-.2,5.63-.76.41-1.88.53-2.07,1.37s.6,1.34,1.11,1.92a3.63,3.63,0,0,1-1.11,5.39c-.44.21-1,.38-1.14.84a1.73,1.73,0,0,0,.11,1,5.33,5.33,0,0,1,.17,1.95.89.89,0,0,1-.23.61,1,1,0,0,1-.58.16c-2.63.12-3.9-.81-5.5,1.47a2.07,2.07,0,0,1-.55.59,1.78,1.78,0,0,1-.72.18c-1.81.15-3-1-4.64-1.19-2.29-.29-2.78.89-4.8,1.84C117.76,138,116.22,137.05,115.62,134.89Z" style="fill:#f5f5f5"></path><path d="M99.9,145.48a8.53,8.53,0,0,1-.29-1.88c-.23-3.89-4-3.27-7.11-3.8-2.47-.42,4.07-6.66-.91-8.67a4.43,4.43,0,0,1-2.41-1.68A2.83,2.83,0,0,1,90.27,126a6.67,6.67,0,0,1,3.78-1c.82-1,.15-2.48-.63-3.48s-1.75-2.16-1.45-3.41c.45-1.87,3.07-1.94,5-1.58.7-1.13.69-2.55,1-3.84s1.36-2.64,2.69-2.48,2,1.56,3.23,1.85c1.42.33,2.65-.93,3.76-1.87s3.07-1.53,3.83-.29c.46.75.19,1.78.67,2.51.82,1.27,2.79.48,4-.41s3.16-1.72,4-.47a5.19,5.19,0,0,1,.48,1.3c.57,1.67,2.37,2.5,3.77,3.56s2.51,3.19,1.33,4.49c-.59.65-1.62.91-1.91,1.72-.36,1,.68,1.94,1.51,2.65,1.38,1.17,1.63,4.67-.19,5.63-.77.4-1.89.53-2.07,1.37s.59,1.34,1.1,1.92a3.61,3.61,0,0,1-1.11,5.39c-.43.2-1,.38-1.13.83a1.71,1.71,0,0,0,.1,1,5.35,5.35,0,0,1,.18,1.95.72.72,0,0,1-.82.78c-2.63.11-3.89-.82-5.5,1.47a1.7,1.7,0,0,1-.55.58,1.6,1.6,0,0,1-.72.18c-1.81.15-3-1-4.64-1.19-2.29-.29-2.78.89-4.79,1.84C102,148.56,100.49,147.64,99.9,145.48Z" style="fill:#f5f5f5"></path><path d="M104.66,158.87s6.58,9.3,8.85,12.25,13.6,21.32,15.15,33.47c.16,1.29.32,2.41.48,3.38-4.87,32.2-4.11,155.1-3.94,165.18h20c-3.81-75.53-3.1-179.31-2.62-182.48.52-3.36,7-16.15,16.95-21.4s18.61-22.64,18.61-22.64H175s-5.9,10.65-14.29,16.55a31.55,31.55,0,0,1-3.78,2.24,53.61,53.61,0,0,0-3.33-18.79l-1.72,1.58c2.32,9.5,2,15.58,1.31,19.07a34.27,34.27,0,0,0-8.68,5.81c-8.7-11.32-13.59-37.21-13.59-37.21l-2.23,1.22A130.75,130.75,0,0,0,131.54,153c1.63,6.69,6.43,19.31,8.66,25a59,59,0,0,0-6.58,12.34,4.85,4.85,0,0,0-.84-1c-5.67-5.13-16.32-29.34-16.32-29.34-2.58-5.63,1.36-20.41,1.36-20.41h-3l-1.33,12.92L106,144.36l-1.36,1.13,7.94,10.21,4.08,12.93L106,156.83Z" style="fill:#f5f5f5"></path><path d="M405.46,177.31a8.94,8.94,0,0,0,.26-1.77c.22-3.67,3.72-3.09,6.7-3.58,2.33-.39-3.83-6.27.86-8.17a4.14,4.14,0,0,0,2.27-1.58,2.67,2.67,0,0,0-1-3.25,6.33,6.33,0,0,0-3.56-.9c-.77-.93-.14-2.33.6-3.28s1.65-2,1.37-3.2c-.43-1.77-2.9-1.83-4.69-1.49-.66-1.07-.65-2.41-1-3.62s-1.28-2.49-2.53-2.34-1.89,1.47-3.05,1.74c-1.33.32-2.49-.86-3.54-1.75s-2.89-1.44-3.61-.28c-.43.7-.17,1.68-.62,2.37-.78,1.19-2.63.45-3.78-.39s-3-1.62-3.78-.44a4.7,4.7,0,0,0-.45,1.22c-.54,1.57-2.24,2.35-3.55,3.36s-2.37,3-1.25,4.23c.55.6,1.52.85,1.79,1.62.34,1-.64,1.83-1.42,2.49-1.3,1.1-1.53,4.4.18,5.3.72.38,1.78.5,1.95,1.29s-.56,1.27-1,1.81a3.42,3.42,0,0,0,1,5.08c.42.19.92.35,1.07.78a1.67,1.67,0,0,1-.09,1,5,5,0,0,0-.17,1.84.82.82,0,0,0,.23.58.9.9,0,0,0,.54.15c2.47.11,3.67-.77,5.18,1.39a1.82,1.82,0,0,0,.52.55,1.71,1.71,0,0,0,.68.17c1.7.14,2.81-.93,4.37-1.12,2.16-.28,2.61.83,4.51,1.73C403.45,180.21,404.89,179.35,405.46,177.31Z" style="fill:#f5f5f5"></path><path d="M376.94,174.23a8.33,8.33,0,0,0,.27-1.77c.22-3.67,3.72-3.09,6.7-3.58,2.33-.39-3.84-6.27.86-8.17a4.08,4.08,0,0,0,2.26-1.58,2.67,2.67,0,0,0-1-3.25,6.35,6.35,0,0,0-3.56-.9c-.77-.93-.15-2.33.59-3.28s1.65-2,1.37-3.2c-.42-1.77-2.89-1.83-4.68-1.49-.66-1.07-.65-2.41-1-3.62s-1.29-2.49-2.53-2.34-1.9,1.47-3.05,1.74c-1.34.32-2.49-.87-3.54-1.75s-2.89-1.45-3.61-.28c-.44.7-.18,1.68-.63,2.37-.78,1.19-2.63.45-3.77-.4s-3-1.61-3.79-.43a5.07,5.07,0,0,0-.44,1.22c-.54,1.57-2.24,2.35-3.56,3.36s-2.36,3-1.25,4.23c.55.6,1.52.85,1.8,1.62.34,1-.65,1.82-1.42,2.49-1.3,1.1-1.54,4.4.18,5.3.72.38,1.77.5,2,1.29s-.56,1.26-1,1.81a3.4,3.4,0,0,0,1,5.07c.41.2.92.36,1.07.79a1.6,1.6,0,0,1-.1,1,5.19,5.19,0,0,0-.16,1.84.85.85,0,0,0,.22.58.93.93,0,0,0,.55.15c2.47.11,3.67-.77,5.18,1.39a1.65,1.65,0,0,0,.51.54,1.5,1.5,0,0,0,.69.17c1.7.15,2.81-.92,4.36-1.12,2.16-.27,2.62.84,4.52,1.74C374.93,177.13,376.38,176.27,376.94,174.23Z" style="fill:#f5f5f5"></path><path d="M374.2,156.07a8.94,8.94,0,0,0,.26-1.77c.22-3.67,3.72-3.09,6.7-3.58,2.33-.39-3.83-6.27.86-8.17a4.08,4.08,0,0,0,2.26-1.58,2.66,2.66,0,0,0-1-3.25,6.24,6.24,0,0,0-3.56-.89c-.77-.94-.14-2.34.6-3.29s1.64-2,1.36-3.2c-.42-1.77-2.89-1.83-4.68-1.49-.66-1.07-.65-2.4-1-3.62s-1.28-2.49-2.53-2.34-1.89,1.47-3.05,1.74c-1.33.32-2.49-.86-3.54-1.75s-2.89-1.44-3.61-.27c-.43.7-.17,1.67-.62,2.36-.78,1.2-2.63.45-3.78-.39s-3-1.62-3.78-.44a4.64,4.64,0,0,0-.45,1.23c-.54,1.56-2.24,2.34-3.56,3.35s-2.36,3-1.24,4.23c.55.6,1.52.85,1.79,1.62.34,1-.64,1.83-1.42,2.49-1.3,1.1-1.53,4.4.18,5.3.72.38,1.78.5,2,1.29s-.56,1.27-1,1.81a3.42,3.42,0,0,0,1,5.08c.42.19.92.36,1.07.79a1.65,1.65,0,0,1-.09.95,5,5,0,0,0-.17,1.84.85.85,0,0,0,.22.58,1,1,0,0,0,.55.15c2.47.11,3.67-.77,5.18,1.39a1.79,1.79,0,0,0,.51.55,1.63,1.63,0,0,0,.69.17c1.7.14,2.81-.93,4.37-1.12,2.16-.28,2.61.83,4.51,1.73C372.18,159,373.63,158.11,374.2,156.07Z" style="fill:#f5f5f5"></path><path d="M355.41,165.11a8.14,8.14,0,0,0,.27-1.76c.22-3.67,3.72-3.09,6.7-3.59,2.33-.39-3.84-6.27.86-8.16A4.13,4.13,0,0,0,365.5,150a2.68,2.68,0,0,0-1-3.26,6.35,6.35,0,0,0-3.56-.89c-.77-.93-.15-2.33.59-3.28s1.65-2,1.37-3.2c-.42-1.77-2.9-1.84-4.68-1.49-.66-1.07-.65-2.41-1-3.63s-1.29-2.49-2.53-2.33-1.9,1.47-3.05,1.74c-1.34.31-2.5-.87-3.55-1.76s-2.88-1.44-3.6-.27c-.44.7-.18,1.68-.63,2.37-.78,1.19-2.63.45-3.77-.4s-3-1.61-3.79-.44a5.15,5.15,0,0,0-.44,1.23c-.55,1.57-2.24,2.35-3.56,3.35s-2.36,3-1.25,4.23c.55.61,1.52.85,1.8,1.62.34,1-.65,1.83-1.42,2.49-1.3,1.11-1.54,4.41.18,5.31.72.38,1.77.49,1.95,1.29s-.56,1.26-1,1.81a3.4,3.4,0,0,0,1,5.07c.41.2.92.36,1.07.79a1.61,1.61,0,0,1-.1,1,5.13,5.13,0,0,0-.16,1.83.83.83,0,0,0,.22.58.8.8,0,0,0,.54.15c2.48.12,3.68-.76,5.19,1.39a1.68,1.68,0,0,0,.51.55,1.63,1.63,0,0,0,.68.17c1.71.14,2.82-.92,4.37-1.12,2.16-.27,2.62.84,4.52,1.73C353.4,168,354.85,167.15,355.41,165.11Z" style="fill:#f5f5f5"></path><path d="M336.43,160.94a9,9,0,0,0,.27-1.77c.22-3.67,3.72-3.09,6.7-3.59,2.32-.39-3.84-6.26.85-8.16a4.1,4.1,0,0,0,2.27-1.58,2.66,2.66,0,0,0-1-3.25,6.36,6.36,0,0,0-3.57-.9c-.76-.93-.14-2.33.6-3.28s1.65-2,1.37-3.2c-.43-1.77-2.9-1.84-4.68-1.49-.67-1.07-.65-2.41-1-3.62s-1.29-2.49-2.54-2.34-1.89,1.47-3,1.74c-1.34.32-2.5-.87-3.55-1.76s-2.88-1.44-3.61-.27c-.43.7-.17,1.68-.62,2.37-.78,1.19-2.63.45-3.78-.4s-3-1.61-3.78-.43a5.09,5.09,0,0,0-.45,1.22c-.54,1.57-2.23,2.35-3.55,3.35s-2.37,3-1.25,4.23c.55.61,1.52.85,1.79,1.63.35,1-.64,1.82-1.42,2.49-1.29,1.1-1.53,4.4.18,5.3.72.38,1.78.5,2,1.29s-.57,1.26-1,1.81a3.4,3.4,0,0,0,1,5.07c.41.2.92.36,1.07.79a1.6,1.6,0,0,1-.1,1,5.19,5.19,0,0,0-.17,1.84.82.82,0,0,0,.23.57.84.84,0,0,0,.54.16c2.48.11,3.67-.77,5.18,1.39a1.79,1.79,0,0,0,.52.54,1.59,1.59,0,0,0,.68.17c1.7.14,2.82-.92,4.37-1.12,2.16-.27,2.62.84,4.52,1.73C334.42,163.84,335.87,163,336.43,160.94Z" style="fill:#f5f5f5"></path><path d="M336.18,181.24a6.89,6.89,0,0,0,.21-1.39c.17-2.89,2.93-2.43,5.28-2.82,1.83-.31-3-4.94.67-6.43a3.27,3.27,0,0,0,1.79-1.24,2.11,2.11,0,0,0-.81-2.57,5,5,0,0,0-2.8-.7c-.61-.73-.12-1.84.47-2.58s1.29-1.6,1.07-2.53c-.33-1.39-2.28-1.44-3.68-1.17a10.34,10.34,0,0,1-.77-2.85c-.25-1-1-2-2-1.84s-1.49,1.16-2.4,1.37-2-.68-2.79-1.38-2.27-1.14-2.84-.22c-.34.55-.14,1.32-.49,1.87-.62.94-2.07.35-3-.31s-2.34-1.28-3-.35a3.86,3.86,0,0,0-.35,1c-.43,1.23-1.76,1.84-2.8,2.64s-1.86,2.36-1,3.33c.43.47,1.2.67,1.41,1.27.27.76-.5,1.44-1.12,2-1,.87-1.2,3.47.15,4.18.56.3,1.39.39,1.53,1s-.44,1-.82,1.42a2.7,2.7,0,0,0,.82,4c.33.15.73.28.85.62a1.31,1.31,0,0,1-.08.75,3.94,3.94,0,0,0-.13,1.45.67.67,0,0,0,.18.45.61.61,0,0,0,.42.12c1.95.09,2.89-.6,4.08,1.1a1.53,1.53,0,0,0,.41.43,1.23,1.23,0,0,0,.54.13c1.34.11,2.21-.73,3.44-.88,1.7-.22,2.06.66,3.55,1.36C334.6,183.53,335.74,182.85,336.18,181.24Z" style="fill:#f5f5f5"></path><path d="M325.55,174.23a9.06,9.06,0,0,0,.26-1.77c.22-3.67,3.72-3.09,6.7-3.58,2.33-.39-3.83-6.27.86-8.17a4.08,4.08,0,0,0,2.26-1.58,2.66,2.66,0,0,0-1-3.25,6.33,6.33,0,0,0-3.56-.9c-.77-.93-.14-2.33.6-3.28s1.65-2,1.36-3.2c-.42-1.77-2.89-1.83-4.68-1.49-.66-1.07-.65-2.41-1-3.62s-1.28-2.49-2.53-2.34-1.89,1.47-3.05,1.74c-1.33.32-2.49-.87-3.54-1.75s-2.89-1.45-3.61-.28c-.43.7-.17,1.68-.62,2.37-.78,1.19-2.63.45-3.78-.4s-3-1.61-3.78-.43a4.7,4.7,0,0,0-.45,1.22c-.54,1.57-2.24,2.35-3.56,3.36s-2.36,3-1.24,4.23c.55.6,1.52.85,1.79,1.62.34,1-.64,1.82-1.42,2.49-1.3,1.1-1.53,4.4.18,5.3.72.38,1.78.5,1.95,1.29s-.56,1.26-1,1.81a3.41,3.41,0,0,0,1,5.07c.42.2.92.36,1.07.79a1.67,1.67,0,0,1-.09,1,5,5,0,0,0-.17,1.84.85.85,0,0,0,.22.58,1,1,0,0,0,.55.15c2.47.11,3.67-.77,5.18,1.39a1.76,1.76,0,0,0,.51.54,1.5,1.5,0,0,0,.69.17c1.7.15,2.81-.92,4.37-1.12,2.16-.27,2.61.84,4.51,1.74C323.53,177.13,325,176.27,325.55,174.23Z" style="fill:#f5f5f5"></path><path d="M355.41,142.78a8.33,8.33,0,0,0,.27-1.77c.22-3.67,3.72-3.09,6.7-3.58,2.33-.39-3.84-6.27.86-8.17a4.08,4.08,0,0,0,2.26-1.58,2.67,2.67,0,0,0-1-3.25,6.35,6.35,0,0,0-3.56-.9c-.77-.93-.15-2.33.59-3.28s1.65-2,1.37-3.2c-.42-1.77-2.9-1.83-4.68-1.49-.66-1.07-.65-2.41-1-3.62s-1.29-2.49-2.53-2.34-1.9,1.47-3.05,1.74c-1.34.32-2.5-.87-3.55-1.75s-2.88-1.45-3.6-.28c-.44.7-.18,1.68-.63,2.37-.78,1.19-2.63.45-3.77-.39s-3-1.62-3.79-.44a5.07,5.07,0,0,0-.44,1.22c-.55,1.57-2.24,2.35-3.56,3.36s-2.36,3-1.25,4.23c.55.6,1.52.85,1.8,1.62.34,1-.65,1.82-1.42,2.49-1.3,1.1-1.54,4.4.18,5.3.72.38,1.77.5,1.95,1.29s-.56,1.26-1,1.81a3.4,3.4,0,0,0,1,5.07c.41.2.92.36,1.07.79a1.6,1.6,0,0,1-.1,1,5.19,5.19,0,0,0-.16,1.84.85.85,0,0,0,.22.58.92.92,0,0,0,.54.15c2.48.11,3.68-.77,5.19,1.39a1.65,1.65,0,0,0,.51.54,1.49,1.49,0,0,0,.68.17c1.71.15,2.82-.92,4.37-1.12,2.16-.27,2.62.84,4.52,1.74C353.4,145.68,354.85,144.82,355.41,142.78Z" style="fill:#f5f5f5"></path><path d="M379.8,144a9,9,0,0,0,.27-1.77c.21-3.67,3.72-3.09,6.7-3.59,2.32-.39-3.84-6.27.85-8.16a4.19,4.19,0,0,0,2.27-1.58,2.68,2.68,0,0,0-1-3.26,6.36,6.36,0,0,0-3.57-.89c-.76-.93-.14-2.33.6-3.28s1.65-2,1.37-3.2c-.43-1.77-2.9-1.84-4.69-1.49-.66-1.07-.64-2.41-1-3.62s-1.29-2.49-2.54-2.34-1.89,1.47-3,1.74c-1.34.31-2.5-.87-3.55-1.76s-2.88-1.44-3.61-.27c-.43.7-.17,1.68-.62,2.37-.78,1.19-2.63.45-3.78-.4s-3-1.61-3.78-.44a5.17,5.17,0,0,0-.45,1.23c-.54,1.57-2.23,2.35-3.55,3.35s-2.37,3-1.25,4.23c.55.61,1.52.85,1.79,1.62.35,1-.64,1.83-1.42,2.49-1.3,1.11-1.53,4.41.18,5.31.72.38,1.78.5,2,1.29s-.57,1.26-1,1.81a3.41,3.41,0,0,0,1,5.07c.41.2.92.36,1.07.79a1.61,1.61,0,0,1-.1,1,5.17,5.17,0,0,0-.17,1.84.82.82,0,0,0,.23.57.84.84,0,0,0,.54.16c2.48.11,3.67-.77,5.18,1.38a1.82,1.82,0,0,0,.52.55,1.59,1.59,0,0,0,.68.17c1.7.14,2.82-.92,4.37-1.12,2.16-.27,2.62.84,4.52,1.73C377.79,146.93,379.24,146.06,379.8,144Z" style="fill:#f5f5f5"></path><path d="M394.61,154a8.33,8.33,0,0,0,.27-1.77c.22-3.67,3.72-3.09,6.7-3.59,2.33-.39-3.84-6.27.86-8.16a4.17,4.17,0,0,0,2.26-1.58,2.68,2.68,0,0,0-1-3.26,6.35,6.35,0,0,0-3.56-.89c-.77-.93-.15-2.33.59-3.28s1.65-2,1.37-3.2c-.42-1.77-2.9-1.84-4.68-1.49-.66-1.07-.65-2.41-1-3.62s-1.29-2.49-2.53-2.34-1.9,1.47-3,1.74c-1.34.31-2.5-.87-3.55-1.76s-2.88-1.44-3.6-.27c-.44.7-.18,1.68-.63,2.37-.78,1.19-2.63.45-3.77-.4s-3-1.61-3.79-.44a4.75,4.75,0,0,0-.44,1.23c-.55,1.57-2.24,2.35-3.56,3.35s-2.36,3-1.25,4.23c.55.61,1.52.85,1.8,1.62.34,1-.65,1.83-1.43,2.49-1.29,1.11-1.53,4.41.19,5.31.72.38,1.77.5,1.95,1.29s-.56,1.26-1,1.81a3.4,3.4,0,0,0,1,5.07c.41.2.92.36,1.07.79a1.61,1.61,0,0,1-.1,1,5,5,0,0,0-.16,1.84.83.83,0,0,0,.22.57.86.86,0,0,0,.54.16c2.48.11,3.67-.77,5.19,1.38a1.68,1.68,0,0,0,.51.55,1.63,1.63,0,0,0,.68.17c1.71.14,2.82-.92,4.37-1.12,2.16-.27,2.62.84,4.52,1.73C392.6,156.91,394.05,156,394.61,154Z" style="fill:#f5f5f5"></path><path d="M390.12,166.62s-6.19,8.76-8.33,11.53S369,198.23,367.52,209.68c-.16,1.22-.31,2.27-.46,3.19,4.6,30.32,3.88,152.8,3.71,162.3H350.22c2.25-93.82,4.63-175.61,4.17-178.6-.48-3.17-6.56-15.21-16-20.16s-17.52-21.33-17.52-21.33h3s5.56,10,13.46,15.6a32.19,32.19,0,0,0,3.55,2.11,50.52,50.52,0,0,1,3.15-17.71l1.61,1.5c-2.18,8.94-1.89,14.67-1.23,18a32.66,32.66,0,0,1,8.17,5.47c8.2-10.66,12.81-35,12.81-35l2.1,1.14a124,124,0,0,1-2.71,15c-1.54,6.31-6.06,18.19-8.16,23.58a55.55,55.55,0,0,1,6.19,11.63,4.59,4.59,0,0,1,.79-.95C369,190.5,379,167.69,379,167.69c2.43-5.31-1.28-19.23-1.28-19.23h2.8l1.26,12.18,7-7.69,1.28,1.07-7.48,9.61-3.84,12.18,10-11.11Z" style="fill:#f5f5f5"></path><rect x="70.79" y="292.23" width="358.42" height="12.15" style="fill:#e0e0e0"></rect><polygon points="79.23 367.68 62.35 367.68 62.35 261.12 70.79 255.12 79.23 261.12 79.23 367.68" style="fill:#e6e6e6"></polygon><polygon points="109.1 367.68 92.22 367.68 92.22 261.12 100.66 255.12 109.1 261.12 109.1 367.68" style="fill:#e6e6e6"></polygon><polygon points="138.97 367.68 122.09 367.68 122.09 261.12 130.53 255.12 138.97 261.12 138.97 367.68" style="fill:#e6e6e6"></polygon><polygon points="168.84 367.68 151.96 367.68 151.96 261.12 160.4 255.12 168.84 261.12 168.84 367.68" style="fill:#e6e6e6"></polygon><polygon points="198.7 367.68 181.82 367.68 181.82 261.12 190.26 255.12 198.7 261.12 198.7 367.68" style="fill:#e6e6e6"></polygon><polygon points="228.57 367.68 211.69 367.68 211.69 261.12 220.13 255.12 228.57 261.12 228.57 367.68" style="fill:#e6e6e6"></polygon><polygon points="258.44 367.68 241.56 367.68 241.56 261.12 250 255.12 258.44 261.12 258.44 367.68" style="fill:#e6e6e6"></polygon><polygon points="288.31 367.68 271.43 367.68 271.43 261.12 279.87 255.12 288.31 261.12 288.31 367.68" style="fill:#e6e6e6"></polygon><polygon points="318.18 367.68 301.3 367.68 301.3 261.12 309.74 255.12 318.18 261.12 318.18 367.68" style="fill:#e6e6e6"></polygon><polygon points="348.04 367.68 331.17 367.68 331.17 261.12 339.6 255.12 348.04 261.12 348.04 367.68" style="fill:#e6e6e6"></polygon><polygon points="377.91 367.68 361.03 367.68 361.03 261.12 369.47 255.12 377.91 261.12 377.91 367.68" style="fill:#e6e6e6"></polygon><polygon points="407.78 367.68 390.9 367.68 390.9 261.12 399.34 255.12 407.78 261.12 407.78 367.68" style="fill:#e6e6e6"></polygon><polygon points="437.65 367.68 420.77 367.68 420.77 261.12 429.21 255.12 437.65 261.12 437.65 367.68" style="fill:#e6e6e6"></polygon><path d="M424.81,368.84s2.8-9.36-2.86-11.22-9-6.24-8.81-11.19-5.76-9.77-10.22-5.13-3.87-3.57-9.82-5.56-11,2.84-9.36,7.26-4.25,7.19-11.28,3.43-14.76,3.08-13.27,8.43.27,5.95-4.18,4.17-12.41,3.27-9.62,9.81S424.81,368.84,424.81,368.84Z" style="fill:#e0e0e0"></path><path d="M124.48,367.5s2.17-7.27-2.22-8.71-7-4.85-6.84-8.69-4.47-7.58-7.94-4-3-2.77-7.62-4.32-8.53,2.21-7.27,5.64S89.3,353,83.84,350.1s-11.46,2.39-10.3,6.55.21,4.62-3.25,3.23-9.63,2.54-7.46,7.62S124.48,367.5,124.48,367.5Z" style="fill:#e0e0e0"></path><path d="M233,368.36c5-5,.5-13.5-4.5-14.5s-10-9.8-10.26-15.4S209,315.64,195,326.27s-9.75,1.57-19.87-1.42-16.52,5.61-12.08,12.06c0,0-10.17-2.55-14.36,6.95s0,15.4,0,15.4-19.14-.56-17.41,11.27S233,368.36,233,368.36Z" style="fill:#e0e0e0"></path><path d="M55.21,368.66v13.7h386v-13.7a4.08,4.08,0,0,0-4-4.3H59.25A4.08,4.08,0,0,0,55.21,368.66Z" style="fill:#ebebeb"></path><rect x="395.21" y="364.36" width="24" height="18" style="fill:#f5f5f5"></rect><rect x="350.21" y="364.36" width="23" height="18" style="fill:#f5f5f5"></rect><rect x="304.21" y="364.36" width="24" height="18" style="fill:#f5f5f5"></rect><rect x="259.21" y="364.36" width="23" height="18" style="fill:#f5f5f5"></rect><rect x="214.21" y="364.36" width="23" height="18" style="fill:#f5f5f5"></rect><rect x="168.21" y="364.36" width="24" height="18" style="fill:#f5f5f5"></rect><rect x="123.21" y="364.36" width="23" height="18" style="fill:#f5f5f5"></rect><rect x="77.21" y="364.36" width="24" height="18" style="fill:#f5f5f5"></rect><path d="M137,248.71l2.5.17" style="fill:none;stroke:#e0e0e0;stroke-linecap:round;stroke-linejoin:round"></path><path d="M144.45,249.19c39.29,2.36,78.75,2.45,118-.82,20.83-1.74,41.6-4.43,62.17-8.19,18.73-3.43,38.38-6.77,55.48-15.54a83.4,83.4,0,0,0,11.31-6.94c5.12-3.73,9.89-8.28,12.39-14.09,14.72-34.15-63.3-21.45-77.52-20.76-40.73,2-81.46,4.84-122.21,6.47-24.06,1-59.47-7.29-71.07-30.88-1.63-3.33-2.72-7.08-2.08-10.74a18,18,0,0,1,4.93-8.9c12.46-13.45,34.53-17.26,51.78-21.38a319.37,319.37,0,0,1,55.62-8.18" style="fill:none;stroke:#e0e0e0;stroke-linecap:round;stroke-linejoin:round;stroke-dasharray:4.975170135498047,4.975170135498047"></path><path d="M245.72,109.11l2.5-.11" style="fill:none;stroke:#e0e0e0;stroke-linecap:round;stroke-linejoin:round"></path><polygon points="244.01 102.3 249.65 106.65 252 117.49 260.17 112.32 268.32 115.86 292.35 103.89 244.01 102.3" style="fill:#ebebeb"></polygon><polygon points="252 117.49 254.62 109.9 260.17 112.32 252 117.49" style="fill:#e0e0e0"></polygon><polygon points="249.65 106.65 292.35 103.89 254.62 109.9 268.32 115.86 292.35 103.89 244.01 102.3 249.65 106.65" style="fill:#f5f5f5"></polygon></g><g id="freepik--Shadow--inject-111"><ellipse id="freepik--path--inject-111" cx="250" cy="416.24" rx="193.89" ry="11.32" style="fill:#f5f5f5"></ellipse></g><g id="freepik--Letter--inject-111"><path d="M399,418.35H222.44a4,4,0,0,1-4-4V293.3l84.59-64a8.87,8.87,0,0,1,10.54-.14L403,293.3V414.38A4,4,0,0,1,399,418.35Z" style="fill:#407BFF"></path><path d="M399,418.35H222.44a4,4,0,0,1-4-4V293.3l84.59-64a8.87,8.87,0,0,1,10.54-.14L403,293.3V414.38A4,4,0,0,1,399,418.35Z" style="opacity:0.2;isolation:isolate"></path><path d="M367.74,361.35h-125a11,11,0,0,0,5-9.23V164.47a10.3,10.3,0,0,1,6-9.35h125a10.3,10.3,0,0,0-6,9.35V352.12a11,11,0,0,1-5,9.23Z" style="fill:#407BFF"></path><path d="M367.74,361.35h-125a11,11,0,0,0,5-9.23V164.47a10.3,10.3,0,0,1,6-9.35h125a10.3,10.3,0,0,0-6,9.35V352.12a11,11,0,0,1-5,9.23Z" style="fill:#fff;opacity:0.7000000000000001;isolation:isolate"></path><path d="M364.08,211.27c-1.77-.88-7.08.08-8.47.24s-2.05.08-3.32.23-1.4,0-1.62-.47-2.44-.16-3-.37-5.55.85-10.89.84-1.76.09-2.53-.84-3.34.69-3.9.79-1.88.14-2.08-.82-1.58,1-2.93.8,1.57-2.31-.28-1.36-6.11,1.36-6.11,1.36l1.35,1c-5.1.08-9.54.16-10.43.24s-1.44.08-2.44-1.53-.89.41-4.66,1.37-4.66.72-6.44-.16-2.66.08-4,.24-2.05.08-3.32.23-1.39,0-1.62-.47-2.44-.16-3-.37-5.55.85-10.89.84-1.76.09-2.53-.84-3.34.69-3.89.79-1.89.14-2.08-.82-1.59,1-2.93.8,1.57-2.31-.29-1.36-6.11,1.36-6.11,1.36" style="fill:none;stroke:#263238;stroke-linecap:round;stroke-linejoin:round"></path><path d="M288.67,173.86c-.56-.21-5.55.85-10.89.84s-1.76.09-2.52-.84-3.35.69-3.9.79-1.89.14-2.08-.82-1.58,1-2.93.8,1.57-2.31-.28-1.35-6.12,1.35-6.12,1.35" style="fill:none;stroke:#263238;stroke-linecap:round;stroke-linejoin:round"></path><path d="M364.08,314.42c-.55-.21-5.54.85-10.88.84s-1.77.09-2.53-.84-3.34.69-3.9.79-1.88.14-2.08-.82-1.58,1-2.93.8,1.57-2.31-.28-1.36-6.12,1.36-6.12,1.36" style="fill:none;stroke:#263238;stroke-linecap:round;stroke-linejoin:round"></path><path d="M255.56,222.71a2.88,2.88,0,0,1,2.25,0l.9-.64c.52.63,1.51.46,2.23.1a4.18,4.18,0,0,1,2.24-.8c-.05.34-.11.69-.16,1a11.46,11.46,0,0,0,3.09-.86.62.62,0,0,0,.26.83,1.62,1.62,0,0,0,.93.14l9.24-.33,1.63-.06a.38.38,0,0,1,.24.46,5.46,5.46,0,0,0,3.09-1.69,1.38,1.38,0,0,0,1.05,1.54,2.83,2.83,0,0,0,2-.36,2.51,2.51,0,0,1,.86-.33.66.66,0,0,1,.71.47c.57-.26,1.18.19,1.79.35a4,4,0,0,0,1.15.07l12.48-.51,3.05.59s4.27-.4,6.12-1.35-1.06,1.11.28,1.35,2.74-1.76,2.93-.8,1.53.92,2.08.82,3.14-1.71,3.9-.78-2.81.82,2.53.83,10.33-1,10.88-.83,2.78-.11,3,.36.34.62,1.62.47,1.93-.07,3.32-.23,2.27-1.11,4.05-.24,2.66,1.12,6.44.16,3.66-3,4.66-1.36,6.84,1.6,7.72,1.52" style="fill:none;stroke:#263238;stroke-linecap:round;stroke-linejoin:round"></path><path d="M363.92,203.09c-.38,0,.38,0,0-.07-.6-.16.57-.61,0-.35-.05-.31-5.64-.49-5.95-.46a2.37,2.37,0,0,0-.86.32,2.83,2.83,0,0,1-2,.36,1.38,1.38,0,0,1-1-1.54,5.53,5.53,0,0,1-3.09,1.7.39.39,0,0,0-.24-.47l-1.63.06-9.24.34a1.72,1.72,0,0,1-.93-.15.62.62,0,0,1-.26-.83,11.46,11.46,0,0,1-3.09.86c.06-.35.11-.7.16-1a4.27,4.27,0,0,0-2.24.8c-.72.36-1.71.53-2.23-.1l-.9.65a2.84,2.84,0,0,0-2.25,0l-9-.88s-4.16.09-4.82-.28-3,.93-3,.93h-3l-3.83.14v-.73a29.58,29.58,0,0,1-4.49.59c-2.16.08-2.66.39-2.76-.59s-2.9.27-5.12.73-1.77.37-2.44-.73-1.5.15-2.66.6a4.73,4.73,0,0,1-3.83,0c-1-.61-5.33.38-7.09.4s-.07-.49-.44-1.34-1.63,1.44-2.82,1.34,1-2.29-.67-2.12a14.77,14.77,0,0,0-4.47,1.85" style="fill:none;stroke:#263238;stroke-linecap:round;stroke-linejoin:round"></path><path d="M356.43,231.6c-.66,0-1.56-.51-1.51-1.95-.45-.44-.94.35-1.37.9s-1.15.61-1.27-.45a1.32,1.32,0,0,1-2.07-.16,1.69,1.69,0,0,1-1.93,1.22l-17.66-.74a2,2,0,0,1-1.24-.35c-.26-.2-.49-.52-.76-.63-.72-.32-1.37.92-2,1.66s-1.72.59-1.83-1c-.75,1.45-1.88,1.87-2.81,1-.42.35-.87.7-1.31.54a2.1,2.1,0,0,1-.77-2,3.36,3.36,0,0,1-2,2.65,3.79,3.79,0,0,1-2.43-.46l-7.09.28a21.73,21.73,0,0,1-7-.57c.06.49-.69.68-1.24.69l-4.66.08a2.52,2.52,0,0,1-1-.13.68.68,0,0,1-.46-.76,6.31,6.31,0,0,1-2.93.06c-.55-.29-1.15.26-1.72.51a3.84,3.84,0,0,1-1.63.21l-8.05-.13c-.72,0-1.57-.08-1.95-.63a9.38,9.38,0,0,0-3.18,2,3.25,3.25,0,0,0,0-1.75,7.76,7.76,0,0,0-2.31,1.32c-.09-1.09-.19-2.18-.29-3.26-1.6.18-2.71,1.7-4.32,1.86a20.66,20.66,0,0,0-2.72-.06c-.71.16-1.57.66-2.07.17-.14-.13-.21-.33-.39-.42a.92.92,0,0,0-.72.07,10.7,10.7,0,0,1-6.43.29" style="fill:none;stroke:#263238;stroke-linecap:round;stroke-linejoin:round"></path><path d="M254.5,252.1s3.41-.4,4.89-1.36-.85,1.12.23,1.36,2.19-1.77,2.35-.81,1.22.93,1.66.83,2.51-1.72,3.12-.79-2.25.83,2,.84,8.27-1,8.71-.84,2.22-.11,2.4.37.27.61,1.29.47,1.55-.07,2.66-.23,1.82-1.12,3.25-.24,2.13,1.11,5.15.16,2.93-3,3.73-1.37,1.24,1.61,1.95,1.53,4.27-.16,8.35-.24l7.38-.25a10.66,10.66,0,0,0,6.42-.28.92.92,0,0,1,.72-.07c.18.09.26.28.4.42.49.48,1.35,0,2.07-.18a22.62,22.62,0,0,1,2.72.07c1.6-.16,2.71-1.68,4.32-1.87.09,1.09.19,2.18.29,3.26a7.68,7.68,0,0,1,2.3-1.31,3.16,3.16,0,0,1,0,1.75,9.14,9.14,0,0,1,3.18-2c.38.55,1.22.62,1.94.63l8.06.13a3.88,3.88,0,0,0,1.63-.21c.57-.25,1.17-.8,1.72-.52a6.18,6.18,0,0,0,2.93-.05.68.68,0,0,0,.46.76,2.52,2.52,0,0,0,1,.12l4.66-.08c.55,0,1.29-.19,1.24-.68,2.27.56,2,.76,4.3.57" style="fill:none;stroke:#263238;stroke-linecap:round;stroke-linejoin:round"></path><path d="M364.08,241.25c-3,.95-1.75.71-3.17-.16s-2.13.08-3.24.24-1.65.08-2.67.23-1.11,0-1.29-.47-1.95-.16-2.4-.37-4.44.85-8.71.84-1.41.09-2-.84-2.67.69-3.12.79-1.51.14-1.66-.83-1.27,1-2.35.81,1.26-2.31-.22-1.36-4.9,1.36-4.9,1.36l-8.45-.26-6.35.07c-.66,0-1.55-.51-1.5-2-.46-.44-.94.35-1.38.9s-1.15.61-1.26-.45a1.33,1.33,0,0,1-2.08-.16,1.69,1.69,0,0,1-1.92,1.22l-17.66-.74a2,2,0,0,1-1.25-.35,4.25,4.25,0,0,0-.75-.63c-.73-.32-1.38.92-2,1.66s-1.73.6-1.83-1c-.76,1.45-1.89,1.87-2.82,1-.42.35-.86.71-1.3.54a2.12,2.12,0,0,1-.78-2,3.38,3.38,0,0,1-2,2.65,3.83,3.83,0,0,1-2.44-.46" style="fill:none;stroke:#263238;stroke-linecap:round;stroke-linejoin:round"></path><path d="M364.08,175.64l-17.66-.75a1.93,1.93,0,0,1-1.24-.35,4.38,4.38,0,0,0-.76-.63c-.72-.31-1.37.92-2,1.67s-1.73.59-1.83-1c-.76,1.45-1.89,1.87-2.82,1-.42.35-.86.71-1.31.55a2.13,2.13,0,0,1-.77-2,3.38,3.38,0,0,1-2,2.65,3.94,3.94,0,0,1-2.44-.46" style="fill:none;stroke:#263238;stroke-linecap:round;stroke-linejoin:round"></path><path d="M364.08,322.88l-17.66-.74a2,2,0,0,1-1.24-.35,4.45,4.45,0,0,0-.76-.64c-.72-.31-1.37.93-2,1.67s-1.73.59-1.83-1c-.76,1.45-1.89,1.87-2.82,1-.42.35-.86.7-1.31.54a2.13,2.13,0,0,1-.77-2,3.38,3.38,0,0,1-2,2.65,3.81,3.81,0,0,1-2.44-.46" style="fill:none;stroke:#263238;stroke-linecap:round;stroke-linejoin:round"></path><path d="M254.5,270.82a16.4,16.4,0,0,0,8-.29,1.41,1.41,0,0,1,.9-.07c.22.09.31.28.49.42.62.48,1.68,0,2.57-.18,1.09-.2,2.25.16,3.37.07,2-.16,3.37-1.68,5.37-1.87l.36,3.26a10.7,10.7,0,0,1,2.86-1.31,2.57,2.57,0,0,1,0,1.75,12.08,12.08,0,0,1,3.95-2,3.41,3.41,0,0,0,2.42.63l10,.13a5.84,5.84,0,0,0,2-.21c.71-.25,1.45-.8,2.14-.51a9.69,9.69,0,0,0,3.64-.06c-.13.3.17.62.56.76a4.16,4.16,0,0,0,1.28.13l5.79-.09c.68,0,1.61-.19,1.54-.68a33.7,33.7,0,0,0,8.7.57l7.14.38a5.59,5.59,0,0,1,3.19,0l1.27-.65c.74.63,2.15.47,3.17.1a8,8,0,0,1,3.18-.8c-.07.35-.15.69-.22,1a21.91,21.91,0,0,0,4.38-.86c-.27.27,0,.67.36.83a3.45,3.45,0,0,0,1.33.15l13.1-.34,2.32-.06c.26.05.43.28.34.47a8,8,0,0,0,4.05-1.69c-.24.67-.93,1.36,0,1.53" style="fill:none;stroke:#263238;stroke-linecap:round;stroke-linejoin:round"></path><path d="M363.88,260.83c-.69-.28.71.26,0,.52s.68.21,0,.21l-11.16-.14a3.46,3.46,0,0,1-2.42-.62,12.26,12.26,0,0,0-3.95,2,2.54,2.54,0,0,0,0-1.74,10.11,10.11,0,0,0-2.86,1.31l-.36-3.26c-2,.19-3.37,1.71-5.37,1.87-1.12.09-2.28-.28-3.37-.07-.89.17-2,.66-2.57.17-.18-.13-.27-.33-.49-.42a1.48,1.48,0,0,0-.9.07,16.16,16.16,0,0,1-8,.29l-2.93.26-17.71.51a8.13,8.13,0,0,1-1.64-.07c-.86-.16-1.73-.61-2.54-.35-.08-.31-.57-.49-1-.47a4.18,4.18,0,0,0-1.21.33,5.54,5.54,0,0,1-2.79.36c-.94-.17-1.73-.87-1.49-1.54a9,9,0,0,1-4.38,1.69c.08-.18-.08-.41-.35-.47l-2.31.07-13.1.33a3.41,3.41,0,0,1-1.33-.14c-.39-.17-.63-.57-.37-.83a21.64,21.64,0,0,1-4.38.86c.08-.35.15-.7.23-1.05a7.8,7.8,0,0,0-3.18.81c-1,.36-2.44.53-3.17-.1l-1.28.64a5.67,5.67,0,0,0-3.19,0" style="fill:none;stroke:#263238;stroke-linecap:round;stroke-linejoin:round"></path><path d="M254.29,281.09a8,8,0,0,0,2.53.22,2.72,2.72,0,0,0,2.12-1.31,1,1,0,0,0,.8,1,2.62,2.62,0,0,0,1.36-.27,2.79,2.79,0,0,0,2.93-.52c.11.8,1.22.88,1.9.51s1.36-1,2.11-.83a5.88,5.88,0,0,1,.79.31,3.77,3.77,0,0,0,1.29.18l18.37.37a2.36,2.36,0,0,0,2-.61,2.45,2.45,0,0,0,2.16.08c.12.53.87.49,1.32.22s.95-.66,1.42-.44c-.05.71.88,1,1.57,1l6.6,0,2.34-.12a5.59,5.59,0,0,1,3.19,0l1.28-.65c.74.63,2.15.46,3.17.1a7.78,7.78,0,0,1,3.18-.8c-.08.35-.15.69-.23,1a21.87,21.87,0,0,0,4.39-.86c-.27.27,0,.67.36.83a3.41,3.41,0,0,0,1.33.15l13.1-.34,2.31-.06c.27.05.43.28.35.47a9.13,9.13,0,0,0,4.38-1.7c-.24.68.56,1.37,1.49,1.54a5.41,5.41,0,0,0,2.79-.36,4.14,4.14,0,0,1,1.22-.32c.43,0,.92.15,1,.46a5.56,5.56,0,0,1,2.54.35,7.46,7.46,0,0,0,1.64.07" style="fill:none;stroke:#263238;stroke-linecap:round;stroke-linejoin:round"></path><path d="M403,293.3V414.39a4,4,0,0,1-3.57,3.94l-.4,0H222.44l-.41,0a4,4,0,0,1-3.55-3.94V293.3l78.61,54.26,4.3,3,6.9,4.77,7.29-4.77,4.54-3Z" style="fill:#407BFF"></path><path d="M403,412.81V414a4.23,4.23,0,0,1-3.57,4.32l-.4,0H222.44l-.41,0a4.23,4.23,0,0,1-3.55-4.32v-1.2l78.61-65.25,4.3,3,6.9,4.77,7.29-4.77,4.54-3Z" style="opacity:0.2;isolation:isolate"></path><path d="M403,413.3v1.09a4,4,0,0,1-4,4H222.44a4,4,0,0,1-4-4V413.3l82.91-62.77,1.68-1.27a8.88,8.88,0,0,1,10.54-.14l2,1.41Z" style="fill:#407BFF"></path></g><g id="freepik--mail-box--inject-111"><rect x="105.39" y="257.03" width="7.54" height="161.32" transform="translate(218.32 675.38) rotate(180)" style="fill:#263238"></rect><path d="M99.26,231.26h23a10.65,10.65,0,0,1,10.65,10.65v17.33a0,0,0,0,1,0,0H88.61a0,0,0,0,1,0,0V241.91A10.65,10.65,0,0,1,99.26,231.26Z" style="fill:#407BFF"></path><path d="M122.52,231.26h.75a9.6,9.6,0,0,1,9.6,9.6v18.38a0,0,0,0,1,0,0H112.93a0,0,0,0,1,0,0V240.85A9.6,9.6,0,0,1,122.52,231.26Z" style="opacity:0.4;isolation:isolate"></path><path d="M112.93,258.74h19.94l6.55,11.17c2,3.42-.83,6.19-6.34,6.19h0c-5.5,0-11.59-2.77-13.6-6.19Z" style="fill:#407BFF"></path><path d="M112.93,258.74h19.94l6.55,11.17c2,3.42-.83,6.19-6.34,6.19h0c-5.5,0-11.59-2.77-13.6-6.19Z" style="opacity:0.2;isolation:isolate"></path><polygon points="112.93 242.58 116.29 242.58 119.81 257.74 112.93 257.74 112.93 242.58" style="fill:#fff;opacity:0.4;isolation:isolate"></polygon><polygon points="117.5 245.64 119.81 245.64 125.71 257.74 123.86 257.74 117.5 245.64" style="fill:#fff;opacity:0.4;isolation:isolate"></polygon><polygon points="122.06 248.72 123.55 248.72 131.45 257.74 130.28 257.74 122.06 248.72" style="fill:#fff;opacity:0.4;isolation:isolate"></polygon><path d="M106,245.39V225.61h-2.45v2.07h1.34v17.71a2.73,2.73,0,0,0-1.24,2.5c0,1.46.81,2.64,1.79,2.64s1.79-1.18,1.79-2.64A2.75,2.75,0,0,0,106,245.39Z" style="fill:#407BFF"></path><path d="M106,245.39V225.61h-2.45v2.07h1.34v17.71a2.73,2.73,0,0,0-1.24,2.5c0,1.46.81,2.64,1.79,2.64s1.79-1.18,1.79-2.64A2.75,2.75,0,0,0,106,245.39Z" style="fill:#fff;opacity:0.7000000000000001;isolation:isolate"></path><polygon points="112.93 277.63 105.39 272.95 105.39 418.35 112.93 418.35 112.93 277.63" style="fill:#fff;opacity:0.2;isolation:isolate"></polygon><path d="M86.57,418.35h50.34s1.88-2.51-10.15-2.76c0,0,10.89-9.57,9.24-12.32s-10.29,7.31-10.29,7.31,5.31-10.88,3.45-14S121.6,407,121.6,407s-1.7-7.86-4.1-8.63-8.34,8.92-8.34,8.92-7.77-20.42-11.85-18.94,2.59,15.54,2.59,15.54-7-6.32-11.29-4.08,2.78,11.4,2.78,11.4S86.2,412.84,86.57,418.35Z" style="fill:#407BFF"></path><path d="M86.57,418.35h50.34s1.88-2.51-10.15-2.76c0,0,10.89-9.57,9.24-12.32s-10.29,7.31-10.29,7.31,5.31-10.88,3.45-14S121.6,407,121.6,407s-1.7-7.86-4.1-8.63-8.34,8.92-8.34,8.92-7.77-20.42-11.85-18.94,2.59,15.54,2.59,15.54-7-6.32-11.29-4.08,2.78,11.4,2.78,11.4S86.2,412.84,86.57,418.35Z" style="fill:#fff;opacity:0.4;isolation:isolate"></path></g><g id="freepik--Character--inject-111"><path d="M191,165.27a8.06,8.06,0,0,1,7.54-2.53c5,.79,15,9.51,14.07,18.93s-3.83,18-6.79,18.38c0,0-2.63-3.35-16.45-2.93s-11.31-8.32-9.06-15.29S181.9,162,191,165.27Z" style="fill:#263238"></path><path d="M209.46,204.08c2.75,2.57,11.68,17.7,12.73,18.36s1.5-6.23,1.5-6.23l4.87-.86s2.63,16.69-4.43,15.17c-7.92-1.72-18.32-16.16-18.32-16.16s.75-4.68,1.13-6.39S209.46,204.08,209.46,204.08Z" style="fill:#407BFF"></path><path d="M224.13,230.52c-6.12-1.33-13.71-10.24-16.85-14.23-.93-1.18-1.47-1.93-1.47-1.93s.4-2.47.75-4.47c.14-.76.28-1.45.38-1.92.39-1.72,2.52-3.89,2.52-3.89,2.75,2.57,11.68,17.7,12.73,18.36s1.5-6.23,1.5-6.23l4.87-.86S231.19,232,224.13,230.52Z" style="fill:#fff;opacity:0.4;isolation:isolate"></path><path d="M207.28,216.29c-.93-1.18-1.47-1.93-1.47-1.93s.4-2.47.75-4.47A12.42,12.42,0,0,1,207.28,216.29Z" style="opacity:0.2;isolation:isolate"></path><path d="M205.12,216.42c-1.28,3.84-2.28,7.16-3.09,10.14a113.62,113.62,0,0,0-4.19,22.88l-30.79-3.31c-.81-22,0-34.13.67-40.17.75-6.43,1.75-6.65,1.75-6.65s7-.54,13.08-.37a98.29,98.29,0,0,1,14,1.75,91.49,91.49,0,0,1,12.91,3.39c-.75,2-1.43,3.92-2.06,5.71C206.56,212.17,205.8,214.37,205.12,216.42Z" style="fill:#407BFF"></path><path d="M209.46,204.08c-.75,2-1.43,3.92-2.06,5.71-.84,2.38-1.6,4.58-2.28,6.63-1.28,3.84-2.28,7.16-3.09,10.14a113.62,113.62,0,0,0-4.19,22.88l-30.79-3.31c-.1-2.71-.17-5.26-.23-7.68-.12-5.44-.14-10.15-.08-14.22q0-1.08,0-2.1c.14-6.72.47-11.52.8-14.84.06-.48.1-.92.15-1.33.75-6.43,1.75-6.65,1.75-6.65s7-.54,13.08-.38a99.76,99.76,0,0,1,14,1.76A91.49,91.49,0,0,1,209.46,204.08Z" style="fill:#fff;opacity:0.4;isolation:isolate"></path><path d="M170.57,208.39s-.73,8.12-3.8,13.74c.14-6.72.47-11.52.8-14.84A13.5,13.5,0,0,1,170.57,208.39Z" style="opacity:0.2;isolation:isolate"></path><path d="M196.29,237.17l-9.12-1.1s-1.37,2.72-3.54,3-7.23-3.6-7.23-3.6a26.24,26.24,0,0,1-9.58,3c-.12-5.44-.14-10.15-.08-14.22,2.79.2,10,1.19,20.19,5.79C188.18,230.58,196.29,237.17,196.29,237.17Z" style="opacity:0.2;isolation:isolate"></path><polygon points="225.38 409.56 219.07 410.67 216.48 402.07 214.12 394.18 221.39 391.63 223.51 401.12 225.38 409.56" style="fill:#e4897b"></polygon><polygon points="223.54 401.32 216.51 402.24 214.14 394.26 221.4 391.68 223.54 401.32" style="opacity:0.2;isolation:isolate"></polygon><polygon points="183.27 412.46 176.86 412.46 175.81 403.44 174.86 395.21 182.46 393.94 182.89 403.74 183.27 412.46" style="fill:#e4897b"></polygon><polygon points="182.89 403.83 175.81 403.51 174.86 395.24 182.46 393.96 182.89 403.83" style="opacity:0.2;isolation:isolate"></polygon><path d="M224.13,396.31l-10.37,1.83c-10.46-26.07-17.9-47.83-23.16-65.89-2.83-9.74-5.19-18.41-6.89-26.1l.32,28.38v63.93H173.81C148.2,276.46,166.52,246,166.52,246L197,243.56a138.33,138.33,0,0,1,2.57,17.21l1.38,10.17,12,61.87Z" style="fill:#263238"></path><path d="M190.6,332.25c-2.83-9.74-5-18.41-6.73-26.1a240.09,240.09,0,0,1,2-27.21S190.34,314,190.6,332.25Z" style="opacity:0.2;isolation:isolate"></path><polygon points="166.96 241.11 198.53 242.96 198.03 248.4 166.22 246.48 166.96 241.11"></polygon><path d="M188.74,242.6a2.2,2.2,0,0,0-1.47-.72l-3.88-.25a1.61,1.61,0,0,0-1.76,1.67v2.5a2.3,2.3,0,0,0,1.93,2.22l.17,0,3.88.24a1.61,1.61,0,0,0,1.75-1.67v-2.49A2.24,2.24,0,0,0,188.74,242.6Zm-1.22,4.67-3.88-.24a1.05,1.05,0,0,1-.72-.35,1.11,1.11,0,0,1-.3-.74v-2.49a.79.79,0,0,1,.86-.81l3.88.24h.08a1.14,1.14,0,0,1,.63.35,1.08,1.08,0,0,1,.3.73v.38a.42.42,0,0,0-.15,0l-1.09-.08a.57.57,0,0,0-.61.62.81.81,0,0,0,.71.72l1.09.08h.05v.82A.78.78,0,0,1,187.52,247.27Z" style="fill:#fff"></path><path d="M175.36,408.09c0-.66,8.24-.14,8.24-.14s5.05,5.14,10,6.3,2.17,4.1-3.32,4.1H176.66C172.76,418.35,175.2,415,175.36,408.09Z" style="fill:#263238"></path><path d="M187.92,410.05a10.29,10.29,0,0,1-3.41-1l-.07-.05h0l0,0a.25.25,0,0,1,0-.17c0-.08.72-2,1.84-2.46a1.23,1.23,0,0,1,1.06,0q.57.27.54.69c0,.43-.61.87-1.28,1.22a3.37,3.37,0,0,1,1.85.2.89.89,0,0,1,.43.56.81.81,0,0,1-.19.88A1.17,1.17,0,0,1,187.92,410.05Zm-2.65-1.18c1.21.52,2.71,1,3.1.65,0,0,.14-.11,0-.43a.44.44,0,0,0-.23-.29A5.41,5.41,0,0,0,185.27,408.87Zm1.47-2.26a.86.86,0,0,0-.34.07,3.69,3.69,0,0,0-1.41,1.77c1.22-.47,2.4-1.1,2.42-1.47,0-.12-.18-.23-.29-.28A.92.92,0,0,0,186.74,406.61Z" style="fill:#263238"></path><path d="M217.36,408.09c0-.66,8.24-.14,8.24-.14s5.05,5.14,10,6.3,2.17,4.1-3.32,4.1H218.66C214.76,418.35,217.2,415,217.36,408.09Z" style="fill:#263238"></path><path d="M229.92,410.05a10.29,10.29,0,0,1-3.41-1l-.07-.05h0l0,0a.25.25,0,0,1,0-.17c0-.08.72-2,1.84-2.46a1.23,1.23,0,0,1,1.06,0q.57.27.54.69c0,.43-.61.87-1.28,1.22a3.37,3.37,0,0,1,1.85.2.89.89,0,0,1,.43.56.81.81,0,0,1-.19.88A1.17,1.17,0,0,1,229.92,410.05Zm-2.65-1.18c1.21.52,2.71,1,3.1.65,0,0,.14-.11,0-.43a.44.44,0,0,0-.23-.29A5.41,5.41,0,0,0,227.27,408.87Zm1.47-2.26a.86.86,0,0,0-.34.07,3.69,3.69,0,0,0-1.41,1.77c1.22-.47,2.4-1.1,2.42-1.47,0-.12-.18-.23-.29-.28A.92.92,0,0,0,228.74,406.61Z" style="fill:#263238"></path><path d="M218.43,197.17s-8.77,8.14-9.13,11.1-2.36,14.17-2.36,14.17h15.25s2.38-10.74,3.56-12.65,7.52-7.25,7.52-7.25Z" style="fill:#407BFF"></path><path d="M218.43,197.17s-8.77,8.14-9.13,11.1-2.36,14.17-2.36,14.17h15.25s2.38-10.74,3.56-12.65,7.52-7.25,7.52-7.25Z" style="fill:#fff;opacity:0.7000000000000001;isolation:isolate"></path><path d="M174.16,199a21.15,21.15,0,0,0,15.2,9.78c10.39,1.19,14-6.6,14-6.6S189.36,197.17,174.16,199Z" style="fill:#eec1bb"></path><path d="M189.67,207.18c-6.5-3.45-7.45-7.14-7.45-7.14,5.88-2.45,4.95-10.89,4.95-10.89l7.64,4.64a26.21,26.21,0,0,0-1.63,3.33c-1.94,5,.29,5.87.29,5.87C193.9,206.23,189.67,207.18,189.67,207.18Z" style="fill:#eec1bb"></path><path d="M194.81,193.79a26.21,26.21,0,0,0-1.63,3.33c-5.55-2.09-6-8-6-8Z" style="opacity:0.2;isolation:isolate"></path><path d="M198.94,169.1c7.29,2.3,8.4,7,6.56,14.63-2.3,9.6-6.49,15.61-15,10.72C179,187.82,186.83,165.27,198.94,169.1Z" style="fill:#eec1bb"></path><path d="M200.91,181.83a16.13,16.13,0,0,0,1.17,3.7,2.1,2.1,0,0,1-2.18.21Z" style="fill:#d4827d"></path><path d="M196.64,179.83c-.17.6-.64,1-1,.88s-.59-.7-.42-1.31.65-1,1-.88S196.82,179.22,196.64,179.83Z" style="fill:#263238"></path><path d="M196.05,178.5l1.47-.13S196.54,179.28,196.05,178.5Z" style="fill:#263238"></path><path d="M204.18,181.88c-.18.6-.65,1-1.05.88s-.59-.7-.41-1.3.64-1,1.05-.88S204.35,181.28,204.18,181.88Z" style="fill:#263238"></path><path d="M203.59,180.56l1.46-.14S204.08,181.34,203.59,180.56Z" style="fill:#263238"></path><path d="M198.16,174.77a4,4,0,0,0-3.51.1" style="fill:none;stroke:#263238;stroke-linecap:round;stroke-linejoin:round;stroke-width:0.7246800000000001px"></path><path d="M203.55,176.14a3.58,3.58,0,0,1,2.72,1.51" style="fill:none;stroke:#263238;stroke-linecap:round;stroke-linejoin:round;stroke-width:0.7246800000000001px"></path><path d="M197.93,188.28a18.78,18.78,0,0,0-1.65,2.26l-.46-.19c-2-.89-2.71-2-2.82-2.92a2.88,2.88,0,0,1,.19-1.35,2.92,2.92,0,0,1,.37-.69,10.58,10.58,0,0,0,3.67,2.57C197.65,188.17,197.93,188.28,197.93,188.28Z" style="fill:#263238"></path><path d="M197.23,188l-.5.66c-1.93-.84-3.18-1.69-3.54-2.54a2.92,2.92,0,0,1,.37-.69A10.58,10.58,0,0,0,197.23,188Z" style="fill:#fff"></path><path d="M195.82,190.35c-2-.89-2.71-2-2.82-2.92a7,7,0,0,1,2.08,1.44A2.6,2.6,0,0,1,195.82,190.35Z" style="fill:#de5753"></path><path d="M187.09,178.87s5.3-4.91,6.24-9.7c0,0,16.31-1.34,12.39,13.55,0,0,5.53-12.57-6.91-16.82s-18.18,14.1-13.44,21.6C185.37,187.5,183.79,182,187.09,178.87Z" style="fill:#263238"></path><path d="M187.79,180.78a3.35,3.35,0,0,0-2.52-4c-2.34-.46-4.88,3.83.39,6.72C186.41,183.91,187.12,183.26,187.79,180.78Z" style="fill:#eec1bb"></path><path d="M228.28,215.4l-.38-3.21s.74-2,.38-2.82c-.68-1.63-5-3.64-5.65-4s-3.7,4.49-3.3,5.47,5.41,3.23,5.41,3.23v2Z" style="fill:#eec1bb"></path><path d="M201.84,229.73l-4.14-5.87s-10.63,1.23-10.77,1.55L183.68,233a.66.66,0,0,0,.39.88l13.52,4.58a.66.66,0,0,0,.81-.36l3.39-7.62A1.61,1.61,0,0,0,201.84,229.73Z" style="fill:#407BFF"></path><path d="M201.87,230a11.93,11.93,0,0,1-6.25.6c-3.49-.78-8.69-5.21-8.69-5.21.14-.32,10.77-1.55,10.77-1.55l4.14,5.87S201.86,229.85,201.87,230Z" style="opacity:0.1;isolation:isolate"></path><path d="M187.63,225.59A49.29,49.29,0,0,0,201.87,230S193.81,227.32,187.63,225.59Z" style="opacity:0.1;isolation:isolate"></path><path d="M168.3,228.93l11.73.85s1.85-1.24,2.85-1,6.34,3.16,6.45,4-2.73,4.62-4,4.44-5.53-3.4-5.82-3.86l-14,.26Z" style="fill:#eec1bb"></path><path d="M170.38,199.25c1.41.45,2.53,4.83-1.16,12.27,0,0-5,11.29-4,13.18,1.13,2.29,11.21,4.16,11.21,4.16l-.8,6.46s-13.37,1.85-17.19-6.49S165.62,197.71,170.38,199.25Z" style="fill:#407BFF"></path><path d="M170.38,199.25c1.41.45,2.53,4.83-1.16,12.27,0,0-5,11.29-4,13.18,1.13,2.29,11.21,4.16,11.21,4.16l-.8,6.46s-13.37,1.85-17.19-6.49S165.62,197.71,170.38,199.25Z" style="fill:#fff;opacity:0.4;isolation:isolate"></path><path d="M197.51,165.56s6-4.24,12.73,5.12a19.53,19.53,0,0,1,2.64,18.51" style="fill:none;stroke:#263238;stroke-linecap:round;stroke-linejoin:round;stroke-width:0.5px"></path></g></svg>